<svg xmlns="http://www.w3.org/2000/svg" viewBox="0 0 500 500" width="80" height="80" xmlns:v="https://vecta.io/nano"><defs><linearGradient gradientUnits="userSpaceOnUse" x1="250" y1="153.511" x2="250" y2="346.489" id="A" gradientTransform="matrix(0.341691, -0.939812, 1.180412, 0.429165, -129.27951, 371.929443)"><stop offset="0" stop-color="#c945ce"/><stop offset="1" stop-color="#9e21a3"/></linearGradient><radialGradient gradientUnits="userSpaceOnUse" cx="181.744" cy="223.466" r="16.283" id="B" gradientTransform="matrix(-1.020437, 1.448619, -0.817529, -0.575887, 584.131653, 72.773972)"><stop offset="0" stop-color="#fbffee"/><stop offset="1" stop-color="rgba(0, 0, 0, 1)"/></radialGradient><radialGradient gradientUnits="userSpaceOnUse" cx="181.744" cy="223.466" r="16.283" id="C" gradientTransform="matrix(-1.020439, 1.448621, -0.81753, -0.575888, 655.396401, 75.443241)"><stop offset="0" stop-color="#fbffee"/><stop offset="1" stop-color="rgba(0, 0, 0, 1)"/></radialGradient></defs><g transform="matrix(.809916 .907133 -.959993 .900592 575.274728 294.146824)" fill="#fe0000"><path d="M-190.589 327.852l-26.147-34.496 51.311-.724-25.164 35.219z"/><path d="M-200.46 146.873l18.291-.031.251 150.333-18.291.031z"/></g><path d="M176.778 77.571l4.664 3.024m-2.476 1.171l3.809 1.952m-2.095 1.855l4.188 1.56m-2.093 2.245l2.855.976m-1.808 1.95l2.855 1.757m-1.333 2.44l2.952 1.658m-1.238 2.831l3.426 1.562m-1.807 2.048l3.046 1.757m-1.427 1.854l2.855 1.853m-.857 2.44l2.666 1.171m-2.19 2.244l3.712 2.05m-1.903 2.244l2.474.683m-1.807 1.951l2.95 2.05m-5.331-54.548l-.952 3.026m2.476-1.074l-1.428 3.903m1.999 0l-.952 3.026m2.569-.488l-1.427 4.098m2.761.293l-1.809 3.219m2.856.293l-1.904 2.928m3.142 0l-2.19 3.512m2.666.196l-1.238 2.245m3.046.097l-2.855 2.731m3.521.196l-1.998 2.538m3.141-.196l-2.476 3.415m3.142.39l-1.714 2.147m2.667-.292l-1.619 3.415m2.952.195l-2.285 2.928m2.664.39l-.856 2.243m2.38.098l-1.238 2.538m2.761 0l-2.19 2.147" stroke="#000" stroke-width="1.418"/><g stroke="#824a84" fill="#a628ab" stroke-width="0"><path d="M302.035 264.613l5.538-11.987 40.791-4.761 41.148 3.232 40.843-.314c37.627-24.888 54.578-4.547 59.426 7.279-2.113 23.428-41.758 28.421-55.979 7.277l-37.861-2.512-49.708 2.701-44.2-.916zm-36.502 35.861l12.936.289 20.893 36.226 13.92 39.824 16.954 38.09c37.525 25.048 26.332 49.215 17.779 58.579-21.726 7.587-42.359-27.471-29.335-49.41l-13.22-36.453-22.699-45.411-17.229-41.733zM207.8 203.37l-12.145 4.573-32.356-25.904-27.146-31.863-29.353-29.113c-43.857-9.272-42.045-35.96-37.419-47.879 17.523-15.196 49.22 9.718 44.911 35.018l25.293 28.987 37.309 33.778L207.8 203.37zm33.856 93.619l11.794 5.454 5.399 41.718-2.392 42.232 1.062 41.853c24.971 38.102 5.445 55.852-6 61.039-22.89-1.732-28.495-42.27-8.134-57.237l1.75-38.849-3.555-50.895.075-45.316zm-42.161-46.439l-5.591 11.961-40.812 4.572-41.134-3.423-40.844.125c-37.736 24.713-54.598 4.294-59.394-7.554 2.216-23.418 41.883-28.228 56.01-7.018l37.849 2.687 49.72-2.471 44.195 1.121zm66.686-52.547l-11.656-5.757-4.372-41.844 3.428-42.157-.034-41.867c-24.028-38.735-4.072-55.975 7.497-60.865 22.841 2.322 27.447 42.992 6.726 57.428l-2.703 38.791 2.303 50.97-1.188 45.3zm16.058 8.049l-7.426-10.861 16.132-38.698 23.086-35.063 19.928-36.546c-2.499-45.83 23.13-50.877 35.555-49.349 18.821 13.466 3.454 51.258-21.508 53.474l-20.85 32.491-22.287 45.624-22.631 38.928zm-80.269 74.001l2.879 12.931-29.186 29.597-34.287 23.541-31.909 26.135c-14.557 43.409-40.15 38.168-51.094 31.947-12.472-19.751 15.672-48.804 39.603-41.201l31.27-22.024 37.435-33.63 35.289-27.296z"/><path d="M194.284 231.563l-9.873 8.572-39.069-12.932-36.172-20.362-37.324-17.003c-44.295 6.738-51.539-18.963-51.19-31.785 11.363-20.442 49.481-8.208 53.914 17.069l33.469 18.315 46.359 18.582 39.886 19.545zm104.245 40.622l9.872-8.573 39.07 12.928 36.174 20.359 37.326 17c44.294-6.742 51.541 18.958 51.192 31.781-11.361 20.443-49.48 8.212-53.916-17.064l-33.471-18.312-46.36-18.578-39.887-19.541zm-2.37-45.489l-3.574-12.747 27.538-31.212 32.96-25.455 30.445-27.91c12.185-44.17 38.022-40.393 49.285-34.804 13.522 19.011-13.006 49.621-37.312 43.391l-30.029 23.769-35.556 35.707-33.757 29.262zm-64.969 70.421l7.347 10.917-16.411 38.575-23.338 34.887-20.191 36.393c2.169 45.848-23.497 50.7-35.91 49.078-18.724-13.609-3.084-51.283 21.893-53.31l21.083-32.331 22.615-45.453 22.911-38.756zm47.792 3.128l11.616-5.842 34.806 22.318 30.227 28.799 32.144 25.83c44.559 4.552 45.462 31.288 42.069 43.635-15.888 16.98-49.938-4.425-48.217-30.046l-28.094-26.137-40.529-29.622-34.023-28.936zm-39.4-105.968l-12.914-.815-19.473-37.048-12.365-40.358-15.465-38.75C142.84 50.749 154.962 27.058 163.87 18.05c22.003-6.697 41.261 29.174 27.396 50.566l11.797 36.963 20.921 46.298 15.598 42.402zm75.116 60.32l-.341-13.258 34.295-23.135 38.136-16.169 36.3-19.192c22.602-39.626 46.689-29.328 56.226-21.022 8.439 21.88-24.73 44.691-46.736 32.412l-34.885 15.289-43.158 25.426-39.837 19.648zm-111.494 14.627l-1.844 13.127-37.609 16.877-40.249 9.347-38.937 12.644c-28.796 35.153-50.845 20.84-58.878 11.004-4.719-23.025 31.727-39.778 51.397-23.871l36.9-9.042 46.722-17.604 42.498-12.483z"/></g><g transform="matrix(1.400274 0 0 1.43535 -96.490053 -107.411554)"><g fill="#672869"><circle cx="131.212" cy="136.67" r="21.171"/><circle cx="255.858" cy="96.004" r="21.171"/><circle cx="191.666" cy="101.613" r="21.171"/><circle cx="325.66" cy="114.078" r="21.171"/><circle cx="365.546" cy="152.095" r="21.171"/><circle cx="399.201" cy="194.474" r="21.171"/><circle cx="404.81" cy="255.551" r="21.171"/><circle cx="394.838" cy="311.018" r="21.171"/><circle cx="364.3" cy="354.644" r="21.171"/><circle cx="312.572" cy="392.661" r="21.171"/><circle cx="247.756" cy="402.009" r="21.171"/><circle cx="178.578" cy="385.805" r="21.171"/><circle cx="121.864" cy="345.295" r="21.171"/><circle cx="100.051" cy="300.423" r="21.171"/><circle cx="90.079" cy="252.435" r="21.171"/><circle cx="94.442" cy="189.488" r="21.171"/></g><circle cx="250" cy="250" r="96.489" paint-order="fill" stroke="#c32dc8" stroke-width="0" fill="url(#A)"/><g stroke="#000"><path d="M212.601 234.636c5.246-5.081 11.454-20.016 11.794-27.311.608-10.626 1.9-13.581-7.606-8.794s-19.646 20.279-23.715 30.115c-4.473 10.812 10.308 14.919 19.527 5.99z" paint-order="fill" fill="url(#B)"/><path d="M192.59 216.855c-19.824-14.911 17.076-37.538 37.103-22.901 8.761 6.403-21.243-17.685-37.103 22.901zm105.321-1.601c17.899-18.384-20.986-34.243-39.118-16.094-7.931 7.939 18.993-21.398 39.118 16.094zm4.291 76.564c-15.169-.624-21.16-7.106-36.024-10.199-19.182-3.991-71.008 31.87-57.96 17.253s2.351-45.714 8.486-27.106c3.386 10.27 13.328-16.978 36.717-17.15-10.873 10.981 18-7.971 28.451 13.149 2.101 4.246 18.487 28.416 20.331 24.053z"/></g><path d="M225.015 273.122c13.491 8.095 14.718-7.449 6.829-7.449" stroke="#fff" fill="#fff"/><path d="M244.885 271.834c10.27-10.007 27.18-7.859 34.621 4.398 9.519 14.75 8.426 14.947-9.106 7.126s-36.494 11.067-28.48-4.551c1.225-2.384.995-5.156 2.966-6.972z" stroke="#000" fill="#f100f9"/><path d="M246.741 258.845c4.394 10.984 13.656 14.929 13.656 0m-33.919 35.098c-2.975-12.644 11.833-15.036 11.833-6.072m26.158-7.163c2.274-18.185 15.57-7.917 15.57 4.983" stroke="#fff" fill="#fff"/><g stroke="#000"><path d="M283.865 237.304c5.246-5.081 11.454-20.016 11.794-27.311.608-10.626 1.9-13.581-7.606-8.794s-19.646 20.279-23.715 30.115c-4.473 10.812 10.308 14.919 19.527 5.99z" transform="matrix(.20193 -.9794 .9794 .20193 9.58667 450.937899)" paint-order="fill" fill="url(#C)"/><path d="M202.741 257.647c-4.257-6.574 4.074-11.071 11.988-14.097 9.599-3.953 20.942-4.978 14.168 4.027s-5.283 7.429-15.57 10.008c-1.532.385-9.827 1.315-10.586.062zm92.576-4.483c-2.924 7.266-11.397 3.043-18.428-1.686-8.759-5.573-16.128-14.257-4.865-13.902s9.115.042 17.147 6.968c1.197 1.03 6.733 7.278 6.145 8.619z" stroke-width="0" fill="#d26bd5"/></g></g><path d="M210.314 137.03c6.969-1.43 13.857-3.578 20.94-3.578h14.657 8.376c7.167 0 13.549-.296 7.678 5.724-3.513 3.601-21.71 2.862-27.221 2.862-4.101 0-9.106-.683-11.167 1.431-.979 1.002-10.552 4.207-12.563 2.146-2.654-2.719 1.396-7.602 1.396-11.447m-64.914 100.163c0 5.799 1.83 9.921 3.491 15.025 2.201 6.769-6.639 24.677-1.396 30.049 2.404 2.464 4.697 6.961 6.979 9.301.513.525 2.439 16.102 6.282 12.163 3.134-3.212-2.093-13.218-2.093-15.025 0-12.516 2.019-33.665-7.678-38.635-2.548-1.305-1.329-10.016-4.886-10.016m80.267 116.619c11.359-5.822 25.24-10.075 34.899-15.024 4.964-2.545 18.117 0 23.73 0 1.102 0 6.255-.744 6.98 0 1.234 1.265-3.764 6.937-4.188 7.154-11.541 5.915-27.725.258-39.785 6.439-6.733 3.451-17.281-3.034-22.334 2.147m120.051-165.986c0 11.669 2.791 18.381 2.791 28.618m-108.882-24.325c-1.694 0-6.084.204-4.887 1.431 3.13 3.208 13.538-8.021 15.355-4.293.893 1.832-4.611 6.004-4.886 5.724-1.248-1.279.21-3.148-.697-5.008-1.413-2.897-4.886 3.577-4.886 3.577s.728-14.277 1.396-13.594c3.602 3.693 2.366 7.87 7.678 7.87m-113.77 0c-4.015 10.29-3.442 10.781 4.887 19.317 1.165 1.196 7.231 10.474 9.074 8.586 11.603-11.895-6.3-25.041-11.169-25.041m24.429 141.66c-7.645 0-14.582-1.583-9.771-11.447.284-.584 12.08-1.708 12.563-.716 1.776 3.64-2.792 12.878-2.792 12.878l-2.093-2.146m43.274 15.74c-3.978 3.059-1.867 15.981 2.792 13.594 1.708-.876 10.012-13.347 6.979-16.456-2.445-2.506-6.312 3.578-9.771 3.578" paint-order="fill" stroke-width="0" stroke="#c32dc8" fill="#a50aaa"/><g stroke="#000" stroke-width="1.418"><path d="M225.752 95.969l6.206 28.246m-3.723-16.732h0m-13.654-4.389l8.441 23.666m16.384-27.229l1.49 25.193m-60.576-2.544l10.179 16.031m-22.84-8.398l11.918 20.105m-24.082-12.47l15.392 18.068m16.881-39.953l7.448 21.631"/><path d="M175.107 128.287l7.448 15.777m-21.598-7.38l15.143 16.287m46.425-46.06l4.22 16.287m-17.377-12.725l6.454 14.506"/><path d="M249.088 104.875v18.322m-109.482 36.645l13.655 12.215m-20.357-4.326l16.137 12.724m-10.924-13.996l12.164 12.215m-27.308-7.635l22.84 13.742m-21.102-3.564l16.882 10.689m-24.33-3.818l21.102 8.908m-17.626-.764l14.151 7.633M273.818 97.401l-3.588 23.436m9.416-24.354l-4.036 27.573m13.002-29.871l-6.276 34.925m13.448-22.517l-8.518 21.138m22.864-26.193l-16.588 27.572m17.934-20.22l-12.104 22.977m22.383 5.213l8.701-13.528m-4.206 16.204l9.427-18.283m-5.946 20.809l10.006-15.905m-7.396 19.324l13.922-20.662m-7.976 22.149l12.906-13.379m-8.556 19.324l13.776-21.256m-10.005 23.635l14.211-19.175m-11.601 22.149l14.501-16.649m-5.291 31.736l18.013-12.743m-13.7 17.944l17.761-12.743m-13.955 20.026l20.044-17.685m-16.238 22.106l20.297-9.363m-18.775 16.125l20.044-9.103m-18.015 15.345l18.523-8.322m-285.564 18.383l21.721 5.65m-23.342.664l21.722 5.983m-21.074 2.325l21.074 1.662m-21.398 6.978l21.073-3.987m-30.474 9.305l32.096 1.329m-24.964 4.653l20.424.998m-22.046 21.6l23.991-4.32m-27.233 8.307l26.261-.996m-26.909 8.972l31.124-4.985m-22.694 12.629l23.666-7.976m-17.831 12.961l19.453-6.979m-8.754 25.588l17.183-8.308m-18.479 14.955l18.155-9.97m-17.184 17.282l20.749-15.619m-17.182 19.273l21.073-8.308m-15.562 1.329l20.101-9.304m5.187 25.588l-19.453 16.949m23.379-13.653l-23.991 19.94m26.909-14.29l-14.913 10.302m17.832-8.309l-18.804 19.275m23.342-14.621l-10.698 11.299m15.236-6.98l-16.858 14.29m19.776-11.631l-8.43 15.286m15.563-11.631l-17.183 23.927m39.229-11.298l-10.699 15.618m15.238-14.289l-11.346 20.271m15.56-18.941l-9.401 23.263m12.643-22.932l-2.27 10.635m6.16-9.306l-5.511 21.602m9.402-20.937l-1.622 19.94m8.106-16.949l-2.917 20.271m6.808-20.935l.972 25.589m4.539-24.592l-1.297 15.286m16.534-17.28l2.27 23.261m1.945-23.261l5.188 24.259m-.325-28.247l6.485 26.586m.971-23.595l3.891 26.919m1.621-28.248l7.781 27.25m-2.27-32.235l5.188 26.586m.324-30.907l5.511 32.9m0-29.908l3.89 22.598m9.726-30.906l11.671 11.631m-7.131-15.287l18.479 25.921m-13.292-29.244l9.726 12.295m-1.297-16.284l8.43 18.942m-2.595-22.598l12.32 18.611m-6.483-20.936l10.375 17.28m2.763-31.29l11.72 10.273m-10.871-13.755l14.44 11.144m-12.401-17.414l18.856 20.547m-15.798-22.984l21.573 14.279m-16.137-19.851l15.458 14.104m-12.232-19.503l23.103 18.632m-19.535-24.204l16.817 12.711m-10.192-30.645l19.535 3.831m-16.477-8.532l28.708 6.094m-28.029-13.93l20.724 7.487m-20.045-13.059l22.593 8.881m-22.422-14.628l26.499 11.144m-24.121-13.059l19.535 3.657m-25.646-45.773l18.902-7.62m-16.991 11.321l22.088-3.265m-25.273 7.836l25.698-4.135m-21.451 8.925l21.239-2.394m-20.177 8.055l19.539-3.265m-22.088 10.884l29.311-6.313"/></g><g fill="#fe0000"><path d="M385.952 143.199l13.535 16.006-114.664 102.029-13.535-16.006z"/><path d="M389.741 123.54l3.298 27.385-42.516 37.906-3.298-27.385z"/><path d="M419.22 158.495l-25.958-7.305-42.74 37.641 25.958 7.305z"/></g><path d="M-197.173 176.698c2.104-2.056 5.919.531 8.658 3.979 2.65 3.338 4.291 7.486 2.387 9.002" transform="matrix(-1.00555 -.08558 -.126014 -1.064122 108.875891 431.362275)" fill="red" stroke="red"/></svg>